<!-- Generator: Adobe Illustrator 18.0.0, SVG Export Plug-In  -->
<svg version="1.1"
	 xmlns="http://www.w3.org/2000/svg" xmlns:xlink="http://www.w3.org/1999/xlink" xmlns:a="http://ns.adobe.com/AdobeSVGViewerExtensions/3.0/"
	 x="0px" y="0px" width="568.7px" height="575.2px" viewBox="0 0 568.7 575.2" enable-background="new 0 0 568.7 575.2"
	 xml:space="preserve">
<defs>
</defs>
<path stroke="#000000" stroke-width="0.25" d="M567.1,289.3c0,0-0.4-1.2,0-2s2.2-2.9,0.1-5.6c0,0-1.4-0.9-2.9-1c0,0-2.1-0.9-1.5-1.6
	s1.2-3,0.5-4s-3.1-2-4.9-2.1s-5.1,0.5-6.1,0.9s-6.6,2.2-7.1,2.4s-1.1,0-2-0.4s-4-1.2-6.6,0.1s-3,5.5-2.8,7s1.2,3,1.9,3.5
	s1.5,1.2,0,1s-8.9,0.1-10.4-0.9c0,0-8.5-8.5-11.1-11.8c-2.6-3.2-15.1-20.4-17.8-29c0,0,0.6-1.9-0.2-3.5s-15.4-36.5-34.1-40.9
	c0,0-8.1-1-10.9-0.9s-6.1-1.5-7-2.1s-3.8-0.1-5-1.2s-3.9-0.2-5.1-0.5s-6.4-2.9-6.2-9.9s0.2-4.4,1-5.9s4.6-7.1,5.5-10.2
	c0,0,1.6-0.1,2-0.5s1.8-2.4,2.2-2.5s3.4-0.8,4.8-4.5s3.5-7.6,2.8-11.2c0,0,3.8-1.9,2.5-6.9c0,0,3.3-1.7,4.1-2.2c0,0,0.5-0.3,1.2-0.2
	c0,0,1.1-0.9-0.9-2.2c0,0,7.7-54.5-39.2-54.5s-39.4,48-41.5,50.7c-2.1,2.6,0.2,3.3,1.1,3.4c0,0,1.8,0.2,2.3,0.4
	c0,0,0.6,18.6,4.6,20.9c0,0-1.8,7.4,4.3,22.8c0,0,2,10.4,1.5,12.9c0,0-10.4-0.1-11.8-0.3s-3.8-1.2-6.6-1.2s-4.8-0.7-5.1-0.9
	s-15.3-3.7-36.9,7.9c0,0-3.9,2.6-8.3,2.2l0.2-9.4c0,0,1.8-1.5,2.2-2.8s-0.5-18.6-0.7-22.8s1.8-9.3,2.2-15.6c0,0,0.7-2.7-0.9-3.3
	c0,0,1.7-11.9,1.4-15.1c0,0,1.4-0.7,2.6-0.3s6.6,1.2,7,1.2s1.6-0.1,2.2-0.6s1.5-1.7,0.5-2.6s-2.5-1.3-3.4-1.8s-3.8-1.9-4.7-2.6
	s-3.5-0.5-3.5-0.5s0-1.2,0-1.6s0.6-0.3,1.1-0.4s1.8,0.1,2.3,0.5s2.6,1.6,3,1.9s2.3,2.2,3,2.3s1.3,0.7,2.9-0.2s1.8-2.7,0.2-4.2
	s-3.5-3.7-6.8-5.7c0,0-1.3-1.1-1.7-1.7c0,0,2,0.3,3.2,0.8s3.9,1.6,4.6,1.8s2.5,0.8,3.2,0.3s1.6-1.8,1.6-2.2s-0.2-1.7-2.7-3.2
	c0,0-2.6-2.5-4.2-3.3c0,0,2.7-1.4,0.2-4.7c0,0-1.3-1-2.8-0.1s-3,1.7-3.4,2.1s-1.9-1-2.2-1s0-2.9,0-2.9s0.2-0.3,0.6-0.5
	s1.9-0.2,2.8-0.2s4.3,0,5.2-0.2s1.9-1.2,2.2-2.3s-0.1-2.7-2.6-3.1s-7.3-0.1-7.8-0.4s-0.2-0.9-0.2-1.3s0.8-18.1,0.8-18.1
	s0.3-0.8,0.7-0.7s0.3-1,0.3-1.3s0.3-14.3,0.3-14.3s1.3,0.2,1.7,0.2s3-0.2,3.2-3.2s-0.7-3.6-0.7-3.6s1.6-4.2,1.7-4.8s0.2-2.1,0.1-2.4
	s1.6-4.2,1.6-4.2s0.7-0.3,1.3-0.1s0.8-0.8,1.3-2.4s2-4.6,2-4.9s-0.1-1-0.6-1.2s-0.6-1.4,0.2-2.4c0,0,0.5,0.2,0.8,0.2s2.2-3,2.2-4.6
	c0,0,0.6-5-1.8-7.7c0,0-3.7-6.1-5.1-6.6c0,0,0.9-6.2,0.4-7.7s-3.4-3-4.6-3.4s-2.8-0.7-3.5-0.6c0,0-2.6-3.6-5.9-4.5s-4.4-0.4-4.4-0.4
	s-4.4,2.4-4.6,2.9s-2,4-1.5,6.9s1.6,14.1,1.8,15.2c0,0-3.1,6.2-3.2,6.8s0.8,1.8,1.1,2s0.9,0.5,0.4,2.2s0.8,5.2,2.9,10.2
	c0,0,0.2,1.1,0,4.5s0.1,5.4,0.1,5.4s-1.9,5.5-1.2,8.2s-1,3.6-1.2,5.5c-0.3,1.8-1.4,6.9-1.4,6.9s-5.5,30-5,33.8c0,0-0.2,0.9-0.7,1.1
	s-1.2,0.3-1.3,2.2s-5.5,21.3-7.5,25s-2.5,2.2-6.3,9.7s-12,17.2-12.7,18.2s-16.5,26.8-18.5,32.7c-2,5.8-7.3,17-8,18.3
	s-5.2,10.5-4,15.5s10.5,8.5,11.8,9.3s8.7,0.7,10.7,0.8s9.3-0.7,12.7-0.5s22.2,0.5,23.8,0.3c0,0-4,11.3-3.7,15.5c0,0-7.3,4-9.8,8.8
	s-0.7,8.3,0,8.8s4.2,6.8,4.2,6.8s-12.5,32.8-14.8,36c0,0-6.5,2.3-9,5c0,0-4.8,0.2-5.5,0.5s-3.2-1-3.8-1.5s-0.7-2.5-11.2-2.8
	c0,0-5.7-1.7-8.2-2.7s-62.8-9.7-79.3-9.7c0,0-31.7-4.2-41.7,5.2c0,0-5.5,6.3-6.7,8.8c0,0-8.2,3.7-10.5,8.5s-1.7,11.5-0.8,13.2
	s5.7,8.5,7.2,10s8.3,5,9,5.7s3,12.8,3.7,17.3s8.2,32.5,10.3,40.2s3.5,16.3,3.5,17.8c0,0-24.7,32.5-30.8,40.8s-24.3,27.3-29.2,29
	c0,0-5.5,3.8-6,4.3c0,0-0.5-0.3-1.2-0.2s-3.3,1.8-4.8,3.3c-1.5,1.5-6.8,5.5-7,6s0.2-0.5,0.2-0.5s-0.4-0.3-0.8-0.8s-1.1-0.5-2.2,0.5
	s-1.9,2.8-1.9,2.8s-17.2,4.6-27.6,14.8c0,0-7,4.2-14.4,6.1s-12.4,9.5-11.4,11.4s20.5,21.6,38.9,22c0,0,1.6-0.8,1.9,0.5
	c0,0,3,0.9,4.2-0.8c0,0,1.5-1.8,2.1-0.9c0,0,2.4,2,4.2-2.1c0,0,1.8-1.9,3.9-1.8s4,3.4,6.1,3.1s3.2-0.6,3.2-1s0.6,0,0.9,0.4
	s5.2-0.5,6.2-1.5s3.5-4,3.4-7.9c0,0-1.1-1.1,3.8-5.8s4.5-12.8,4.9-14.2s2.9-8.9,3.1-9.2s8.1-4.8,8.6-9.1s28.8-21.9,31.1-23.6
	c0,0-2.4,7-4,8.1s-4.6,7-4.2,10.9s4.6,8.1,5.1,8.6s6.8,2.9,14-0.8s18.5-10.1,22.6-19.2c4.1-9.1,9.9-4.8,9.9-4.8s1.4,2.9,7.4-0.8
	s11-5.6,13-7.6s7.8-10.8,8-15.8c0,0-3.2-4.1-9.8-6.2c0,0-5.1-7-15.4-9.5c0,0-2.6-0.6-2.6-1.4c0,0,11-17,13.1-27.2
	c0,0,5.5,5.8,11.2,2c0,0,9.9,3.5,14.1,1.2c0,0,4.4-4.1,5.8-8.1c0,0,35.1-1.4,37.9-1.4s31.2-0.1,32.1,0s3.9,1.5,8.1,0.2
	c0,0,28.9,11,49.4-5.3c0,0,25.3-16.8,30.8-28.1c-0.1-0.5,3.9-8.7,3.9-15.6c0,0,2.1-3.8,3-3.4s2,2.9,2.2,3.5s1.5,3,2.6,2.8
	s1.4-1.5,0.4-3.5s-3.2-4.8-3.4-5.1s4.6-4.5,5.5-4.5s4.1,1.4,4.6,1.2s1.4-2.2,0.9-3.5c0,0,0.5-0.6,1.2,0s2.1,1.9,2.5,1.9
	s1.1-1.1,0.9-1.5l1.4,0.9c0,0,0.4-4.9-0.1-5.6c0,0-3.1-0.4-3.6-0.8c0,0,1.9-2.9,2-6.6c0,0,2-3.1,3.1-3.8s8.5-7.4,9.5-11
	s18-23.4,22.6-30.5s14.2-25.6,16.4-29.6s11.4-18,12.1-18.5s1.9,0.2,2.4,0.6s1.5,0.8,1.9,1.4s17,23,26.1,29.4s19.5,22.1,19.9,22.5
	s14,14,27.5,1.8c0,0,4.2-3.5,7.2-10.9c0,0,10.5,0.2,14-2.5s4.9-2.5,6.1-7.8c0,0-0.1-1.5,0.6-1.9S570.1,290.1,567.1,289.3z
	 M444.5,145.6c0.8-0.2,1.8-0.1,2.2-0.2s0.5,1.9,0.2,2.5s-2.2,1.5-2.5-0.1S444.6,146.1,444.5,145.6z M325,48.5
	c1.2-0.8,1.1-3.6,1.1-3.6c1.6-1.6,1.6-4.6,1.6-5.5s0.6-3.1,0.6-3.1c1.4-1,1.5-3.2,1.6-4.9s0.9-1,0.9-1l2.4,2.1c0,0,1.8-0.9,1.4-1.1
	s-3.2-3-3.2-3.4s0.5-2.5,0.5-2.5l3.5-1.1c2.2,4.1,0.6,5.9,0,7.8s-1.4,4-1.4,4h-1.5c-1.8,3.4-2.8,8.6-2.8,8.6s0.6,0,0.5,1
	s-3.2,7.1-3.2,7.1l-2.2-1.1C324.8,51.8,323.8,49.3,325,48.5z M170.5,383.6c0,0-2.6,1.4-3,2.1c0,0-0.4-7.6-1.8-10.1
	c0,0,2.1-3.1,3.2-5.4c1.4,0.6,5.5,2.8,6.1,3C175.1,373.3,169.9,380.9,170.5,383.6z M297.1,325.5c-0.6,0.1-1.8,0-1.8,0
	c-1-1.6-2.6-2.5-3.4-3.6c0.9-1.9,8-24.5,9.2-26.9s1.2-0.4,1.2-0.4C302.5,297.6,297.1,325.5,297.1,325.5z M317.3,188.4
	c-0.5-0.5-0.8-0.5-1.5-0.4s-0.6,0-0.9-0.6s1.1-11.9,1.2-14.9c0,0.8,1.2,5.4,1,8.5s0.6,5.2,0.6,6.4S317.8,188.9,317.3,188.4z
	 M316.6,257.9c-0.8,0.7-1.5,1-1.5,1s-2-1.7-2.7-1.7s-3.8-0.8-5.3-0.5c0,0-0.8-0.5-0.2-2c0.7-1.5,2.2-10.1,2.7-12
	c1,0,5.7-0.8,5.7-0.8s1.2,12.3,1.8,13.8C317.1,255.7,317.4,257.2,316.6,257.9z M317.9,33.9c0.4-1.5,3.4-9,4.8-10
	c0,0.8,0.4,1.2,1,1.6s-0.8,8.1-0.5,10.1c0,0,0.6,0.2,1,0.2s-0.8,4.5-1.1,4.9s-2.9-0.5-3.4-0.2S317.5,35.4,317.9,33.9z M317.8,51.5
	c0-0.8,0.5-4.4,1.2-0.1s1.2,2.8,1.4,3.5s-0.1,3.1-1.4,2S317.5,52.9,317.8,51.5z M315,9.5c0,0,1,0.1,1.9,1.8s0,3.2,0,3.2l-2.2-1.1
	C314.8,12,314.5,10,315,9.5z M308.8,106.4c0,0,3.5-29.9,4.5-32.4s1-4.1,2.5-3c1,0.6,2.1,1.2,2.1,2.6s-1,5.8-0.4,6.4s0.6,2.6,0.5,3.6
	s-1,16.6-1,16.6s-2.5,0.1-3.5,1.4s-4.8,4.8-4.8,5.1C308.8,106.6,308.8,106.4,308.8,106.4z M292.4,209.3c-4.1,1.5-8.6,0.9-8.6,0.9
	l0.9-2.5c1.2-3.1,5.8-15.8,6.8-19.1s13.6-34.4,15-35.8s1.9-1.5,2.8-1.8s4.5-2.4,5.8-9.1c0,0,1.5-4.6,1.4,0.4s-0.5,24-1.8,27.2
	s-2.8,17.2-2.8,19.9s0.5,5.1,1.5,5.8s1,1.2-0.2,2c0,0-1.4-1.1-1.1,7.8C311.9,204.9,296.5,207.8,292.4,209.3z M306,263.8
	c-0.2-0.4-0.1-0.9,0.5-1.2c1.1-1,4.2-1.9,5.4,0.1c0,0-2.5,2.2-2.8,2.8S306.3,264.1,306,263.8z M317.4,303c-0.8,1.5-6.9,6.6-8.5,9.2
	c0-1,1.2-19.2,1.2-19.2c0.6,0,3.1-3.8,3.9-4.4s2.2-5.5,2.2-6.6s-0.1-5.6-0.1-5.6s0-1.4,2.4,1.6s6.1,14,6.1,14
	C324.4,293.1,318.1,301.5,317.4,303z M342.2,241.4c-0.2,1-0.2,1.3-0.7,2.2s-4.8,6.5-5.3,7.5s-7.2,8.5-5.5,18.1l0.2,4
	c0,0-6-9.6-9.3-12.5c0,0-1-1.3-1-2.8s-0.3-14.1-0.8-16.5c1.5,0,8.3-2,10.8-2.7s8.8-1,10.1-1S342.3,240.4,342.2,241.4z"/>
</svg>
