<?xml version="1.0"?><svg width="640" height="480" xmlns="http://www.w3.org/2000/svg">
 <title>Coral and Navy Bird</title>
 <g>
  <path id="svg_100" fill="#ff6060" d="m431.279999,153.285858l40.414581,-27.143639l-57.634033,-16.60553c-48.137268,-83.241646 -146.370697,-39.831459 -179.204437,39.338341c-39.610901,95.425415 -153.064369,130.235809 -153.064369,130.235809c80.747292,94.511749 153.572945,111.579102 202.146461,107.811707c48.598846,-3.791748 179.763062,-41.388672 152.458496,-209.185272c-1.418213,-8.724945 -3.142303,-16.845444 -5.116699,-24.451416z"/>
  <g id="svg_101">
   <path id="svg_102" fill="#0e0e63" d="m414.060547,109.538513c6.877899,11.898537 12.723785,26.408417 17.219452,43.749161l40.414581,-27.143936l-57.634033,-16.605225z"/>
   <path id="svg_103" fill="#0e0e63" d="m349.811523,214.905151c0,0 -134.821884,-27.357391 -150.279221,46.466949c-15.4552,73.815216 109.020798,116.656433 150.279221,-46.466949z"/>
   <path id="svg_104" fill="#0e0e63" d="m375.756287,107.486359c0.899078,7.91613 -3.244324,14.890572 -9.27713,15.581123c-6.055389,0.667419 -11.702332,-5.219971 -12.598999,-13.123634c-0.920715,-7.91584 3.224548,-14.890274 9.279602,-15.580803c6.057281,-0.645859 11.675781,5.209 12.596527,13.123314z"/>
  </g>
  <title>Layer 1</title>
 </g>
</svg>