<?xml version="1.0" encoding="UTF-8" standalone="no"?>
<!-- Created with Inkscape (http://www.inkscape.org/) -->

<svg
xmlns:dc="http://purl.org/dc/elements/1.1/"
xmlns:cc="http://creativecommons.org/ns#"
xmlns:rdf="http://www.w3.org/1999/02/22-rdf-syntax-ns#"
xmlns:svg="http://www.w3.org/2000/svg"
xmlns="http://www.w3.org/2000/svg"
xmlns:xlink="http://www.w3.org/1999/xlink"
xmlns:sodipodi="http://sodipodi.sourceforge.net/DTD/sodipodi-0.dtd"
xmlns:inkscape="http://www.inkscape.org/namespaces/inkscape"
width="343pt"
height="340pt"
id="svg3193"
version="1.1"
inkscape:version="0.48.1 "
sodipodi:docname="lybia_peace_peace_dove_twitter_bird_44.svg">
<defs
id="defs3195">
<linearGradient
id="linearGradient5891">
<stop
style="stop-color:#ffb200;stop-opacity:1;"
offset="0"
id="stop5893" />
<stop
style="stop-color:#ff5200;stop-opacity:1;"
offset="1"
id="stop5895" />
</linearGradient>
<linearGradient
id="linearGradient5865">
<stop
style="stop-color:#009bc2;stop-opacity:1;"
offset="0"
id="stop5867" />
<stop
style="stop-color:#00ccff;stop-opacity:1;"
offset="1"
id="stop5869" />
</linearGradient>
<linearGradient
inkscape:collect="always"
xlink:href="#linearGradient5891"
id="linearGradient6414"
gradientUnits="userSpaceOnUse"
x1="-112.14286"
y1="591.35522"
x2="43.95797"
y2="591.35522" />
<linearGradient
id="linearGradient3144">
<stop
style="stop-color:#ffb200;stop-opacity:1;"
offset="0"
id="stop3146" />
<stop
style="stop-color:#ff5200;stop-opacity:1;"
offset="1"
id="stop3148" />
</linearGradient>
<linearGradient
id="linearGradient5883">
<stop
style="stop-color:#00aad4;stop-opacity:1;"
offset="0"
id="stop5885" />
<stop
style="stop-color:#0085a6;stop-opacity:0.9910714;"
offset="1"
id="stop5887" />
</linearGradient>
<linearGradient
id="linearGradient3155">
<stop
style="stop-color:#009bc2;stop-opacity:1;"
offset="0"
id="stop3157" />
<stop
style="stop-color:#00ccff;stop-opacity:1;"
offset="1"
id="stop3159" />
</linearGradient>
<linearGradient
id="linearGradient3162">
<stop
style="stop-color:#00aad4;stop-opacity:1;"
offset="0"
id="stop3164" />
<stop
style="stop-color:#0085a6;stop-opacity:0.9910714;"
offset="1"
id="stop3166" />
</linearGradient>
<linearGradient
inkscape:collect="always"
xlink:href="#linearGradient5883"
id="linearGradient6422"
gradientUnits="userSpaceOnUse"
gradientTransform="matrix(0.48511392,0.64248512,-0.64248512,0.48511392,318.51514,176.5807)"
x1="23.108006"
y1="402.90033"
x2="77.776672"
y2="402.90033" />
<linearGradient
id="linearGradient3169">
<stop
style="stop-color:#00aad4;stop-opacity:1;"
offset="0"
id="stop3171" />
<stop
style="stop-color:#0085a6;stop-opacity:0.9910714;"
offset="1"
id="stop3173" />
</linearGradient>
<filter
inkscape:collect="always"
id="filter6021-1"
x="-0.068183586"
width="1.1363672"
y="-0.34454471"
height="1.6890894"
color-interpolation-filters="sRGB">
<feGaussianBlur
inkscape:collect="always"
stdDeviation="13.631673"
id="feGaussianBlur6023-7" />
</filter>
<linearGradient
id="linearGradient5891-0">
<stop
style="stop-color:#ffb200;stop-opacity:1;"
offset="0"
id="stop5893-9" />
<stop
style="stop-color:#ff5200;stop-opacity:1;"
offset="1"
id="stop5895-4" />
</linearGradient>
<linearGradient
id="linearGradient5865-8">
<stop
style="stop-color:#009bc2;stop-opacity:1;"
offset="0"
id="stop5867-2" />
<stop
style="stop-color:#00ccff;stop-opacity:1;"
offset="1"
id="stop5869-4" />
</linearGradient>
<linearGradient
inkscape:collect="always"
xlink:href="#linearGradient5891-0"
id="linearGradient6414-5"
gradientUnits="userSpaceOnUse"
x1="-112.14286"
y1="591.35522"
x2="43.95797"
y2="591.35522" />
<linearGradient
id="linearGradient3343">
<stop
style="stop-color:#ffb200;stop-opacity:1;"
offset="0"
id="stop3345" />
<stop
style="stop-color:#ff5200;stop-opacity:1;"
offset="1"
id="stop3347" />
</linearGradient>
<linearGradient
id="linearGradient5883-1">
<stop
style="stop-color:#00aad4;stop-opacity:1;"
offset="0"
id="stop5885-7" />
<stop
style="stop-color:#0085a6;stop-opacity:0.9910714;"
offset="1"
id="stop5887-1" />
</linearGradient>
<linearGradient
id="linearGradient3354">
<stop
style="stop-color:#009bc2;stop-opacity:1;"
offset="0"
id="stop3356" />
<stop
style="stop-color:#00ccff;stop-opacity:1;"
offset="1"
id="stop3358" />
</linearGradient>
<linearGradient
id="linearGradient3361">
<stop
style="stop-color:#00aad4;stop-opacity:1;"
offset="0"
id="stop3363" />
<stop
style="stop-color:#0085a6;stop-opacity:0.9910714;"
offset="1"
id="stop3365" />
</linearGradient>
<linearGradient
id="linearGradient3368">
<stop
style="stop-color:#00aad4;stop-opacity:1;"
offset="0"
id="stop3370" />
<stop
style="stop-color:#0085a6;stop-opacity:0.9910714;"
offset="1"
id="stop3372" />
</linearGradient>
<linearGradient
inkscape:collect="always"
xlink:href="#linearGradient5891-0"
id="linearGradient6424"
gradientUnits="userSpaceOnUse"
x1="-139.90105"
y1="750.52527"
x2="34.845188"
y2="750.52527" />
<linearGradient
id="linearGradient3375">
<stop
style="stop-color:#ffb200;stop-opacity:1;"
offset="0"
id="stop3377" />
<stop
style="stop-color:#ff5200;stop-opacity:1;"
offset="1"
id="stop3379" />
</linearGradient>
<linearGradient
inkscape:collect="always"
xlink:href="#linearGradient5891-0"
id="linearGradient3078"
gradientUnits="userSpaceOnUse"
x1="175.70462"
y1="779.63489"
x2="171.33502"
y2="1052.4921" />
<linearGradient
inkscape:collect="always"
xlink:href="#linearGradient5891-0"
id="linearGradient3082"
gradientUnits="userSpaceOnUse"
x1="-112.14286"
y1="591.35522"
x2="43.95797"
y2="591.35522" />
</defs>
<sodipodi:namedview
pagecolor="#ffffff"
bordercolor="#666666"
borderopacity="1.0"
inkscape:pageopacity="0.0"
inkscape:pageshadow="2"
inkscape:zoom="0.8"
inkscape:cx="2.5"
inkscape:cy="287.42898"
inkscape:document-units="pt"
inkscape:current-layer="layer1"
id="namedview3197"
showgrid="false"
inkscape:window-width="1178"
inkscape:window-height="714"
inkscape:window-x="100"
inkscape:window-y="100"
inkscape:window-maximized="0" />
<metadata
id="metadata3199">
<rdf:RDF>
<cc:Work
rdf:about="">
<dc:format>image/svg+xml</dc:format>
<dc:type
rdf:resource="http://purl.org/dc/dcmitype/StillImage" />
<dc:title></dc:title>
</cc:Work>
</rdf:RDF>
</metadata>
<g
inkscape:label="Layer 1"
inkscape:groupmode="layer"
id="layer1">
<g
transform="matrix(0.41303364,0,0,0.41303364,151.3692,-71.124106)"
id="g6259">
<path
sodipodi:type="arc"
style="opacity:0.63157893;fill:#93aca7;fill-opacity:1;stroke:none;filter:url(#filter6021-1)"
id="path6261"
sodipodi:cx="162.12949"
sodipodi:cy="1084.687"
sodipodi:rx="239.91122"
sodipodi:ry="47.477169"
d="m 402.04071,1084.687 c 0,26.2209 -107.41191,47.4772 -239.91122,47.4772 -132.499314,0 -239.911228,-21.2563 -239.911228,-47.4772 0,-26.2209 107.411914,-47.4772 239.911228,-47.4772 132.49931,0 239.91122,21.2563 239.91122,47.4772 z"
transform="matrix(1.1115789,0,0,1.0713991,8.6788047,-67.869292)" />
<path
inkscape:connector-curvature="0"
style="font-size:medium;font-style:normal;font-variant:normal;font-weight:normal;font-stretch:normal;text-indent:0;text-align:start;text-decoration:none;line-height:normal;letter-spacing:normal;word-spacing:normal;text-transform:none;direction:ltr;block-progression:tb;writing-mode:lr-tb;text-anchor:start;baseline-shift:baseline;color:#000000;fill:url(#linearGradient3078);fill-opacity:1;stroke:none;stroke-width:20;marker:none;visibility:visible;display:inline;overflow:visible;enable-background:accumulate;font-family:Sans;-inkscape-font-specification:Sans"
d="m 136.875,872.96875 a 10.001,10.001 0 0 0 -8.125,4.5625 c 0,0 -54.196709,83.01539 -5.09375,171.34375 -12.98463,0.4866 -30.095338,1.117 -48.96875,1.7188 -17.217401,0.5489 -34.644002,1.0545 -48.125,1.2812 -6.740499,0.1133 -12.480451,0.1643 -16.65625,0.125 -2.0878994,-0.02 -3.8061155,-0.068 -4.9375,-0.125 -1.1313845,-0.057 -2.4032303,-0.4595 -0.46875,0.094 a 10.001,10.001 0 1 0 -5.5,19.2187 c 2.7929541,0.7984 3.3751687,0.5762 4.96875,0.6563 1.5935813,0.08 3.502461,0.1351 5.75,0.1562 4.495078,0.042 10.35135,-0.01 17.1875,-0.125 4.73893,-0.08 10.042347,-0.2082 15.53125,-0.3438 -5.09535,1.1736 -10.013093,2.3031 -14.40625,3.2813 -6.580319,1.4651 -12.213933,2.6684 -16.3125,3.4687 -2.0492837,0.4004 -3.7240026,0.7034 -4.84375,0.875 -1.1197474,0.1718 -2.4435294,0.035 -0.4375,0.1876 a 10.001,10.001 0 1 0 -1.53125,19.9374 c 2.8962994,0.2211 3.422837,-0.102 5,-0.3437 1.577163,-0.2417 3.450287,-0.6004 5.65625,-1.0313 4.411925,-0.8615 10.138808,-2.0766 16.8125,-3.5624 10.358434,-2.3064 23.061505,-5.2786 36.03125,-8.3438 -11.653546,6.0281 -23.063327,11.8969 -32.3125,16.5312 -6.027174,3.02 -11.187465,5.5716 -14.96875,7.3438 -1.890643,0.8861 -3.45551,1.5615 -4.5,2 -1.04449,0.4385 -2.358204,0.6203 -0.375,0.2812 a 10.002771,10.002771 0 1 0 3.375,19.7188 c 2.863306,-0.4893 3.278813,-0.9448 4.75,-1.5625 1.471187,-0.6177 3.214801,-1.39 5.25,-2.3437 4.070399,-1.9078 9.324797,-4.4996 15.4375,-7.5626 12.225406,-6.1256 27.795232,-14.1215 43.125,-22.0937 25.58999,-13.308 46.66609,-24.4636 54.21875,-28.4687 a 10.001,10.001 0 0 0 8.59375,-5.0313 10.001,10.001 0 0 0 -2.375,-15.9687 10.001,10.001 0 0 0 -0.15625,-0.094 10.001,10.001 0 0 0 -0.15625,-0.062 10.001,10.001 0 0 0 -1.96875,-0.7813 c -53.010373,-82.26645 -0.9375,-159.31245 -0.9375,-159.31245 a 10.001,10.001 0 0 0 -8.53125,-15.625 z m 98.75,0 a 10.001,10.001 0 0 0 -8.25,15.625 c 0,0 52.07287,77.046 -0.9375,159.31245 a 10.001,10.001 0 0 0 -2.78125,1.25 10.001,10.001 0 0 0 -2.03125,15.4063 10.001,10.001 0 0 0 1.625,1.5625 10.004882,10.004882 0 0 0 6.40625,3.3125 c 6.86498,3.6414 28.76138,15.2459 54.96875,28.875 15.32977,7.9722 30.86834,15.9682 43.09375,22.0937 6.1127,3.0629 11.39835,5.6547 15.46875,7.5626 2.0352,0.9538 3.74756,1.726 5.21875,2.3437 1.47119,0.6177 1.91794,1.0732 4.78125,1.5625 a 10.002771,10.002771 0 1 0 3.375,-19.7188 c 1.9832,0.339 0.63824,0.1573 -0.40625,-0.2812 -1.04449,-0.4385 -2.57811,-1.1139 -4.46875,-2 -3.78129,-1.7722 -8.97283,-4.3237 -15,-7.3438 -9.24917,-4.6343 -20.65895,-10.5031 -32.3125,-16.5312 12.96975,3.0652 25.67282,6.0374 36.03125,8.3438 6.67369,1.4858 12.43182,2.7008 16.84375,3.5624 2.20596,0.431 4.04784,0.7896 5.625,1.0313 1.57716,0.2417 2.1037,0.5648 5,0.3437 a 10.001,10.001 0 1 0 -1.5,-19.9374 c 2.00603,-0.1531 0.651,-0.016 -0.46875,-0.1876 -1.11975,-0.1715 -2.79447,-0.4746 -4.84375,-0.875 -4.09857,-0.8004 -9.73218,-2.0036 -16.3125,-3.4687 -4.39316,-0.9782 -9.31554,-2.1077 -14.40625,-3.2813 5.50033,0.1359 10.81465,0.264 15.5625,0.3438 6.83615,0.1149 12.69242,0.1673 17.1875,0.125 2.24754,-0.021 4.15642,-0.076 5.75,-0.1562 1.59358,-0.08 2.1758,0.1421 4.96875,-0.6563 a 10.001,10.001 0 0 0 -4.84375,-19.4063 c 0.0382,-0.02 -0.43165,0.057 -1.15625,0.094 -1.13138,0.057 -2.81835,0.1054 -4.90625,0.125 -4.1758,0.039 -9.947,-0.012 -16.6875,-0.125 -13.481,-0.2267 -30.9076,-0.7323 -48.125,-1.2812 -18.8494,-0.601 -35.96353,-1.2011 -48.9375,-1.6876 49.12265,-88.33717 -5.125,-171.37495 -5.125,-171.37495 a 10.001,10.001 0 0 0 -8.40625,-4.5625 z"
id="path6263" />
<path
style="fill:#d66c0b;fill-opacity:1;stroke:none"
d="m 118.125,898.47825 -1.69643,4.19643 c 0,0 6.42857,5.66965 19.19643,4.41965 l 2.76786,-5.80358 z"
id="path6265"
inkscape:connector-curvature="0" />
<path
inkscape:connector-curvature="0"
id="path6267"
d="m 255.44643,900.44253 1.69643,4.19643 c 0,0 -6.42857,5.66965 -19.19643,4.41965 l -2.76786,-5.80358 z"
style="fill:#d66c0b;fill-opacity:1;stroke:none" />
</g>
<path
sodipodi:nodetypes="csccsc"
inkscape:connector-curvature="0"
id="path6269"
d="m 93.182161,132.24764 c 0,0 -1.519938,-89.122247 85.116539,-89.122247 66.5245,0 68.0771,64.081677 68.65358,100.722587 16.63996,71.83494 110.53468,9.85527 121.33871,-7.25291 0,0 24.31901,165.9268 -137.55442,165.9268 -161.87342,0 -137.554409,-170.27423 -137.554409,-170.27423 z"
style="fill:#009370;fill-opacity:1;stroke:none" />
<g
style="fill:url(#linearGradient3082);fill-opacity:1"
transform="matrix(0.53197839,0,0,0.53197839,113.85409,-179.79522)"
id="g6271" />
<path
sodipodi:nodetypes="cccc"
style="fill:#666666;fill-opacity:1;stroke:none"
d="m 221.75443,253.37852 c 0,0 57.97804,37.26441 99.88576,-12.04078 0,0 -65.39719,3.12951 -73.10301,-34.11043 z"
id="path6281"
inkscape:connector-curvature="0" />
<path
inkscape:connector-curvature="0"
id="path6283"
d="m 220.25637,253.10708 c 0,0 62.06243,34.41682 99.64833,-18.25727 0,0 -61.18317,2.99699 -72.01212,-33.45746 z"
style="fill:#009370;fill-opacity:1;stroke:#009370" />
<path
transform="matrix(0.87654324,0,0,0.87654324,94.355448,-363.93293)"
d="m 123.23861,534.40649 a 22.98097,22.98097 0 1 1 -45.961943,0 22.98097,22.98097 0 1 1 45.961943,0 z"
sodipodi:ry="22.98097"
sodipodi:rx="22.98097"
sodipodi:cy="534.40649"
sodipodi:cx="100.25764"
id="path6285"
style="fill:#808080;fill-opacity:1;stroke:none"
sodipodi:type="arc" />
<g
id="g3115">
<path
transform="matrix(0.7027459,0,0,0.7027459,111.77996,-271.05449)"
d="m 123.23861,534.40649 a 22.98097,22.98097 0 1 1 -45.961943,0 22.98097,22.98097 0 1 1 45.961943,0 z"
sodipodi:ry="22.98097"
sodipodi:rx="22.98097"
sodipodi:cy="534.40649"
sodipodi:cx="100.25764"
id="path6287"
style="fill:#000000;fill-opacity:1;stroke:none"
sodipodi:type="arc" />
<path
sodipodi:type="arc"
style="fill:#ffffff;fill-opacity:1;stroke:none"
id="path6289"
sodipodi:cx="100.25764"
sodipodi:cy="534.40649"
sodipodi:rx="22.98097"
sodipodi:ry="22.98097"
d="m 123.23861,534.40649 a 22.98097,22.98097 0 1 1 -45.961943,0 22.98097,22.98097 0 1 1 45.961943,0 z"
transform="matrix(0.27958707,0,0,0.27958707,158.02525,-52.556411)" />
</g>
<path
inkscape:connector-curvature="0"
id="path6293"
d="m 142.09144,26.94443 c 0,0 25.6499,9.599044 29.58393,25.964625 0,0 -0.7868,-21.24378 -14.16252,-32.259073 -13.37571,-11.0152993 -25.80726,1.101525 -15.42141,6.294448 z"
style="fill:#009370;fill-opacity:1;stroke:none" />
<path
style="fill:#009370;fill-opacity:1;stroke:none"
d="m 172.49341,25.158179 c 0,0 5.35793,18.044798 -1.98947,26.980609 0,0 11.3266,-9.229868 11.82896,-21.128682 0.50235,-11.898819 -11.2925,-13.699379 -9.83949,-5.851927 z"
id="path6295"
inkscape:connector-curvature="0" />
<g
id="g6013"
transform="matrix(0.53197839,0,0,0.53197839,127.06915,-263.62638)">
<path
inkscape:connector-curvature="0"
id="path5941"
d="m 34.345187,744.26566 c 0,0 -91.923882,-60.60916 -173.746237,-4.04061 l 42.426406,10.10152 c 0,0 50.507628,81.82237 131.319831,-6.06091 z"
style="fill:url(#linearGradient6424);fill-opacity:1;stroke:none" />
<path
id="path5951"
d="m 34.09375,744.28125 c 0,0 -30.5502791,5.28887 -53.53125,4.53125 -22.251113,-0.73355 -54.930761,-8.35429 -78.53125,1.25 l 1,0.25 c 0,0 0.77734,1.25758 2.28125,3.28125 6.632009,-2.68087 20.050018,-5.30699 45.9375,-1.5 42.9314829,6.31345 82.84375,-7.8125 82.84375,-7.8125 z"
style="fill:#009370;stroke:none"
inkscape:connector-curvature="0" />
</g>
</g>
</svg>
